<?xml version="1.0" encoding="iso-8859-1"?>
<svg width="24" height="24" viewBox="0 0 24 24" fill="none" xmlns="http://www.w3.org/2000/svg">
                <g clip-path="url(#clip0_74_1841)">
                  <path d="M8.24995 22.6125V17.4375L4.38745 20.2875C5.47495 21.3 6.78745 22.0875 8.24995 22.6125Z"
                    fill="#2A5F9E" />
                  <path d="M15.75 22.6124C17.2125 22.0874 18.525 21.2999 19.6125 20.2874L15.75 17.3999V22.6124Z"
                    fill="#2A5F9E" />
                  <path d="M1.38745 15.75C1.49995 16.125 1.64995 16.4625 1.83745 16.8375L3.29995 15.75H1.38745Z"
                    fill="#2A5F9E" />
                  <path d="M20.7 15.75L22.1625 16.8375C22.3125 16.5 22.4625 16.125 22.6125 15.75H20.7Z"
                    fill="#2A5F9E" />
                  <path
                    d="M8.8126 14.25H0.975098C1.0876 14.775 1.2376 15.2625 1.3876 15.75H3.3001L1.8376 16.8375C2.1376 17.475 2.4751 18.0375 2.8876 18.6L6.7501 15.75H8.2501V16.5L3.8626 19.725L4.3876 20.25L8.2501 17.4375V22.6125C8.7376 22.8 9.2251 22.9125 9.7501 23.025V14.25H8.8126Z"
                    fill="white" />
                  <path
                    d="M23.025 14.25H14.25V23.025C14.775 22.9125 15.2625 22.7625 15.75 22.6125V17.4375L19.6125 20.25C20.1375 19.7625 20.5875 19.2375 21.0375 18.675L17.025 15.75H19.575L21.8625 17.4375C21.975 17.25 22.0875 17.025 22.1625 16.8375L20.7 15.75H22.6125C22.7625 15.2625 22.9125 14.775 23.025 14.25Z"
                    fill="white" />
                  <path
                    d="M2.88745 18.6001C3.18745 19.0126 3.48745 19.3876 3.82495 19.7626L8.24995 16.5376V15.7876H6.74995L2.88745 18.6001Z"
                    fill="#ED4C5C" />
                  <path
                    d="M17.0625 15.75L21.075 18.675C21.225 18.4875 21.3375 18.3 21.4875 18.1125C21.525 18.075 21.525 18.0375 21.5625 18.0375C21.675 17.85 21.825 17.625 21.9375 17.4375L19.575 15.75H17.0625Z"
                    fill="#ED4C5C" />
                  <path d="M15.75 1.38745V6.56245L19.6125 3.71245C18.525 2.69995 17.2125 1.91245 15.75 1.38745Z"
                    fill="#2A5F9E" />
                  <path d="M8.24995 1.38745C6.78745 1.91245 5.47495 2.69995 4.38745 3.71245L8.24995 6.59995V1.38745Z"
                    fill="#2A5F9E" />
                  <path d="M22.6125 8.24985C22.5 7.87485 22.35 7.53735 22.1625 7.16235L20.7 8.24985H22.6125Z"
                    fill="#2A5F9E" />
                  <path d="M3.29995 8.24985L1.83745 7.16235C1.68745 7.53735 1.53745 7.87485 1.38745 8.24985H3.29995Z"
                    fill="#2A5F9E" />
                  <path
                    d="M15.1875 9.7501H22.9875C22.875 9.2251 22.725 8.7376 22.575 8.2501H20.6625L22.125 7.1626C21.825 6.5251 21.4875 5.9626 21.075 5.4001L17.25 8.2501H15.75V7.5001L20.1375 4.2751L19.6125 3.7501L15.75 6.5626V1.3876C15.2625 1.2001 14.775 1.0876 14.25 0.975098V9.7501H15.1875Z"
                    fill="white" />
                  <path
                    d="M0.975098 9.7501H9.7501V0.975098C9.2251 1.0876 8.7376 1.2376 8.2501 1.3876V6.5626L4.3876 3.7501C3.8626 4.2376 3.4126 4.7626 2.9626 5.3251L6.9751 8.2501H4.4251L2.1376 6.5626C2.0251 6.7501 1.9126 6.9751 1.8376 7.1626L3.3001 8.2501H1.3876C1.2376 8.7376 1.0876 9.2251 0.975098 9.7501Z"
                    fill="white" />
                  <path
                    d="M21.1125 5.40005C20.8125 4.98755 20.5125 4.61255 20.175 4.23755L15.75 7.46255V8.21255H17.25L21.1125 5.40005Z"
                    fill="#ED4C5C" />
                  <path
                    d="M6.9376 8.24995L2.9626 5.32495C2.8126 5.51245 2.7001 5.69995 2.5501 5.88745C2.5126 5.92495 2.5126 5.96245 2.4751 5.96245C2.3626 6.14995 2.2126 6.37495 2.1001 6.56245L4.3876 8.24995H6.9376Z"
                    fill="#ED4C5C" />
                  <path
                    d="M23.025 9.75H14.25V0.975C13.5375 0.825 12.7875 0.75 12 0.75C11.2125 0.75 10.4625 0.825 9.75 0.975V9.75H0.975C0.825 10.4625 0.75 11.2125 0.75 12C0.75 12.7875 0.825 13.5375 0.975 14.25H9.75V23.025C10.4625 23.175 11.2125 23.25 12 23.25C12.7875 23.25 13.5375 23.175 14.25 23.025V14.25H23.025C23.175 13.5375 23.25 12.7875 23.25 12C23.25 11.2125 23.175 10.4625 23.025 9.75Z"
                    fill="#ED4C5C" />
                </g>
                <defs>
                  <clipPath id="clip0_74_1841">
                    <rect width="24" height="24" fill="white" />
                  </clipPath>
                </defs>
              </svg>
