<?xml version="1.0" encoding="iso-8859-1"?>
<svg width="24" height="25" viewBox="0 0 24 25" fill="none" xmlns="http://www.w3.org/2000/svg">
<path d="M12 11.5527C14.2091 11.5527 16 9.76187 16 7.55273C16 5.3436 14.2091 3.55273 12 3.55273C9.79086 3.55273 8 5.3436 8 7.55273C8 9.76187 9.79086 11.5527 12 11.5527Z" stroke="white" stroke-opacity="0.45" stroke-width="2" stroke-linecap="round" stroke-linejoin="round"/>
<path d="M16.5 21.6948C17.888 21.4449 18.9885 21.0642 19.5 20.5526C19.5719 19.9057 19.5 18.886 19.5 18.886C19.5 18.0019 19.0786 17.1541 18.3285 16.5289C15.9595 14.5548 8.04056 14.5548 5.6716 16.5289C4.92146 17.1541 4.50003 18.0019 4.50003 18.886C4.50003 18.886 4.42815 19.9057 4.50003 20.5526C5.0116 21.0642 6.11201 21.4449 7.50003 21.6948" stroke="white" stroke-opacity="0.45" stroke-width="2" stroke-linecap="round" stroke-linejoin="round"/>
</svg>
