<?xml version="1.0" encoding="iso-8859-1"?>
<svg width="24" height="25" viewBox="0 0 24 25" fill="none" xmlns="http://www.w3.org/2000/svg">
<path d="M3 12.5526V16.5526C3.00036 16.9034 3.09294 17.2478 3.26846 17.5515C3.44398 17.8551 3.69626 18.1073 4 18.2826L11 22.2826C11.304 22.4582 11.6489 22.5506 12 22.5506C12.3511 22.5506 12.696 22.4582 13 22.2826L20 18.2826C20.3037 18.1073 20.556 17.8551 20.7315 17.5515C20.9071 17.2478 20.9996 16.9034 21 16.5526V8.55264C20.9996 8.20191 20.9071 7.85745 20.7315 7.5538C20.556 7.25015 20.3037 6.998 20 6.82264L13 2.82264C12.696 2.6471 12.3511 2.55469 12 2.55469C11.6489 2.55469 11.304 2.6471 11 2.82264L4 6.82264C3.69626 6.998 3.44398 7.25015 3.26846 7.5538C3.09294 7.85745 3.00036 8.20191 3 8.55264V9.55264M15 12.5526C15 14.2095 13.6569 15.5526 12 15.5526C10.3431 15.5526 9 14.2095 9 12.5526C9 10.8958 10.3431 9.55264 12 9.55264C13.6569 9.55264 15 10.8958 15 12.5526Z" stroke="white" stroke-opacity="0.45" stroke-width="2" stroke-linecap="round" stroke-linejoin="round"/>
</svg>
