<?xml version="1.0" encoding="iso-8859-1"?>
<svg width="24" height="25" viewBox="0 0 24 25" fill="none" xmlns="http://www.w3.org/2000/svg">
<path fill-rule="evenodd" clip-rule="evenodd" d="M12 3.55273C7.86583 3.55273 4.18303 6.86007 3.16845 10.802C3.03079 11.3368 2.4856 11.6588 1.95075 11.5212C1.4159 11.3835 1.09391 10.8383 1.23157 10.3035C2.43721 5.61926 6.81492 1.55273 12 1.55273C18.0751 1.55273 23 6.4776 23 12.5527C23 18.6279 18.0751 23.5527 12 23.5527C6.6771 23.5527 2.23928 19.773 1.22 14.7517C1.11013 14.2104 1.45983 13.6826 2.00108 13.5727C2.54232 13.4629 3.07016 13.8126 3.18002 14.3538C4.01382 18.4614 7.64701 21.5527 12 21.5527C16.9705 21.5527 21 17.5233 21 12.5527C21 7.58217 16.9705 3.55273 12 3.55273Z" fill="white" fill-opacity="0.45"/>
<circle cx="12" cy="12.5527" r="6" stroke="white" stroke-opacity="0.45" stroke-width="2"/>
<circle cx="12" cy="12.5527" r="1" stroke="white" stroke-opacity="0.45" stroke-width="2"/>
</svg>
